<?xml version="1.0" encoding="utf-8"?>
<!-- Generator: Adobe Illustrator 16.0.0, SVG Export Plug-In . SVG Version: 6.00 Build 0)  -->
<!DOCTYPE svg PUBLIC "-//W3C//DTD SVG 1.1//EN" "http://www.w3.org/Graphics/SVG/1.1/DTD/svg11.dtd">
<svg version="1.1" id="Layer_1" xmlns="http://www.w3.org/2000/svg" xmlns:xlink="http://www.w3.org/1999/xlink" x="0px" y="0px"
	  height="75px" viewBox="0 0 363 135.863" enable-background="new 0 0 363 135.863" xml:space="preserve">
<g>
	<g>
		<g>
			<g>
				<path fill="#2F3845" d="M130.273,97.404h-4.488l-0.939,2.697h-2.094l4.377-11.588h1.807l4.387,11.588h-2.102L130.273,97.404z
					 M126.35,95.779h3.359l-1.68-4.807L126.35,95.779z"/>
				<path fill="#2F3845" d="M165.1,100.101h-2.014l-5.166-8.221v8.221h-2.014V88.513h2.014l5.182,8.254v-8.254h1.998V100.101z"/>
				<path fill="#2F3845" d="M196.893,90.136h-3.613v9.965h-1.998v-9.965h-3.582v-1.623h9.193V90.136z"/>
				<path fill="#2F3845" d="M221.809,100.101h-2.006V88.513h2.006V100.101z"/>
				<path fill="#2F3845" d="M251.613,97.117c0-0.51-0.18-0.902-0.539-1.178c-0.357-0.275-1.004-0.555-1.938-0.836
					s-1.676-0.594-2.229-0.939c-1.055-0.662-1.584-1.527-1.584-2.594c0-0.934,0.381-1.703,1.143-2.309s1.75-0.908,2.965-0.908
					c0.807,0,1.525,0.15,2.156,0.447c0.633,0.297,1.129,0.719,1.488,1.27c0.361,0.549,0.541,1.156,0.541,1.826h-2.004
					c0-0.605-0.191-1.078-0.57-1.422c-0.379-0.342-0.922-0.512-1.627-0.512c-0.658,0-1.17,0.141-1.533,0.422
					s-0.545,0.674-0.545,1.178c0,0.424,0.197,0.777,0.59,1.063c0.393,0.283,1.039,0.559,1.941,0.826
					c0.902,0.27,1.627,0.574,2.174,0.916c0.545,0.342,0.947,0.734,1.201,1.178s0.383,0.963,0.383,1.557
					c0,0.965-0.371,1.734-1.111,2.305s-1.744,0.855-3.012,0.855c-0.84,0-1.609-0.156-2.313-0.467s-1.25-0.738-1.641-1.285
					c-0.389-0.547-0.584-1.184-0.584-1.91h2.014c0,0.658,0.217,1.168,0.652,1.529c0.436,0.359,1.059,0.541,1.871,0.541
					c0.699,0,1.227-0.143,1.58-0.426C251.436,97.958,251.613,97.583,251.613,97.117z"/>
				<path fill="#2F3845" d="M278.678,95.804v4.297h-2.014V88.513h4.434c1.295,0,2.322,0.338,3.084,1.012s1.143,1.566,1.143,2.678
					c0,1.137-0.373,2.021-1.119,2.652c-0.744,0.633-1.789,0.949-3.131,0.949H278.678z M278.678,94.179h2.42
					c0.717,0,1.264-0.168,1.639-0.504c0.377-0.338,0.566-0.824,0.566-1.461c0-0.627-0.191-1.127-0.574-1.5
					c-0.381-0.375-0.906-0.566-1.574-0.578h-2.477V94.179z"/>
				<path fill="#2F3845" d="M313.424,97.404h-4.488l-0.939,2.697h-2.094l4.377-11.588h1.807l4.387,11.588h-2.102L313.424,97.404z
					 M309.5,95.779h3.359l-1.68-4.807L309.5,95.779z"/>
				<path fill="#2F3845" d="M341.668,88.513l3.342,8.883l3.336-8.883h2.602v11.588h-2.006v-3.82l0.199-5.109l-3.422,8.93h-1.441
					l-3.414-8.922l0.199,5.102v3.82h-2.006V88.513H341.668z"/>
			</g>
		</g>
	</g>
	<g>
		<g>
			<g>
				<g>
					<g>
						<polygon fill="#2F3845" points="191.266,58.837 191.266,66.515 176.381,66.515 172.801,62.937 172.801,43.97 176.381,40.394 
							181.668,40.394 181.668,58.837 						"/>
					</g>
					<g>
						<polygon fill="#2F3845" points="213.523,58.787 213.523,66.515 198.639,66.515 195.061,62.937 195.061,43.97 198.639,40.394 
							203.926,40.394 203.926,58.787 						"/>
					</g>
					<g>
						<polygon fill="#2F3845" points="248.342,43.966 242.631,66.515 233.9,66.515 231.414,58.681 228.998,66.515 220.254,66.515 
							214.547,43.966 218.117,40.394 222.881,40.394 224.947,50.457 228.389,40.394 234.703,40.394 238.008,50.431 240.178,40.394 
							244.77,40.394 						"/>
					</g>
					<g>
						<path fill="#2F3845" d="M272.031,43.798c-2.25-2.42-5.33-3.65-9.16-3.65c-3.84,0-6.92,1.24-9.16,3.66
							c-2.199,2.4-3.32,5.65-3.32,9.66c0,3.99,1.121,7.221,3.32,9.631c2.24,2.439,5.32,3.67,9.16,3.67c3.83,0,6.91-1.221,9.16-3.621
							c2.219-2.379,3.34-5.641,3.34-9.68C275.371,49.427,274.25,46.177,272.031,43.798z M266.141,55.958
							c-0.209,0.709-0.51,1.33-0.891,1.84c-0.299,0.4-0.648,0.689-1.049,0.869c-0.43,0.201-0.85,0.301-1.311,0.301
							c-0.449,0-0.879-0.09-1.311-0.279c-0.389-0.16-0.74-0.451-1.068-0.881c-0.361-0.471-0.65-1.08-0.871-1.811
							c-0.23-0.779-0.35-1.799-0.35-3.029c0-1.199,0.129-1.721,0.369-2.551c0.23-0.779,0.521-1.389,0.861-1.818
							c0.369-0.451,0.729-0.75,1.068-0.9c0.381-0.16,0.811-0.24,1.301-0.24c0.461,0,0.881,0.09,1.301,0.27
							c0.379,0.17,0.74,0.461,1.059,0.871c0.352,0.449,0.641,1.068,0.871,1.84c0.23,0.799,0.35,1.309,0.35,2.51
							C266.471,54.218,266.361,55.228,266.141,55.958z"/>
					</g>
					<g>
						<path fill="#2F3845" d="M296.24,55.599c0.84-0.611,1.561-1.32,2.15-2.141c0.99-1.359,1.48-3.109,1.48-5.201
							c0-1.52-0.311-2.83-0.939-3.879c-0.611-1.01-1.441-1.85-2.471-2.51c-0.971-0.611-2.051-1.02-3.189-1.211
							c-1.031-0.18-2.24-0.26-3.602-0.26h-7.229l-3.58,3.57v18.971l3.58,3.58h5.26v-7.641l6.189,7.641h8.189v-3.561L296.24,55.599z
							 M291,50.068c-0.09,0.211-0.229,0.391-0.439,0.541l-0.029,0.029c-0.221,0.18-0.51,0.301-0.871,0.359
							c-0.559,0.102-0.979,0.16-1.84,0.16h-0.129v-3.76h0.469c0.73,0,1.031,0.02,1.51,0.061c0.342,0.039,0.641,0.109,0.871,0.209
							c0.35,0.15,0.42,0.291,0.439,0.34c0.131,0.23,0.189,0.541,0.189,0.932C291.17,49.609,291.07,49.939,291,50.068z"/>
					</g>
					<g>
						<polygon fill="#2F3845" points="327.992,62.972 327.992,66.515 319.695,66.515 314.641,58.933 314.641,66.515 309.352,66.515 
							305.773,62.937 305.773,43.97 309.352,40.394 314.641,40.394 314.641,47.39 319.68,40.394 324.018,40.394 327.566,43.943 
							320.855,52.675 						"/>
					</g>
					<g>
						<path fill="#2F3845" d="M352.809,57.96c0,2.736-1.092,4.969-3.242,6.637c-2.061,1.592-4.84,2.4-8.252,2.4
							c-1.91,0-3.623-0.189-5.09-0.563c-1.432-0.365-2.785-0.83-4.023-1.373l-0.23-0.1v-5.926h4.461
							c0.377,0.188,0.764,0.357,1.154,0.506c1.295,0.486,2.557,0.736,3.76,0.736c0.287,0,0.684-0.033,1.191-0.1
							c0.541-0.072,0.842-0.176,1-0.25l0.031-0.014c0.254-0.109,0.463-0.262,0.637-0.455c0.031-0.037,0.131-0.15,0.131-0.498
							c0-0.232-0.068-0.371-0.254-0.52c-0.332-0.268-0.752-0.465-1.232-0.592c-0.789-0.207-1.641-0.41-2.537-0.596
							c-0.967-0.201-1.885-0.451-2.721-0.74c-2.07-0.729-3.592-1.754-4.527-3.039c-0.949-1.303-1.428-2.92-1.428-4.818
							c0-2.613,1.115-4.752,3.313-6.359c2.08-1.525,4.691-2.297,7.752-2.297c1.488,0,2.988,0.154,4.461,0.455
							s2.82,0.721,3.996,1.244l0.186,0.102l-0.01,5.617h-4.82c-0.016-0.004-0.027-0.014-0.045-0.02
							c-1.119-0.461-2.285-0.695-3.463-0.695c-0.449,0-0.852,0.031-1.193,0.092c-0.313,0.057-0.654,0.172-1.018,0.34
							c-0.211,0.096-0.387,0.238-0.543,0.428c-0.098,0.125-0.141,0.234-0.141,0.377c0,0.289,0.084,0.42,0.215,0.527
							c0.1,0.08,0.545,0.379,2.008,0.719c0.797,0.182,1.559,0.361,2.299,0.529c0.783,0.18,1.623,0.428,2.504,0.74
							c1.855,0.67,3.271,1.605,4.213,2.779C352.316,54.453,352.809,56.042,352.809,57.96z"/>
					</g>
					<path fill="#2F3845" d="M168.227,44.003v12.203c0,3.266-0.984,5.846-2.924,7.662c-1.912,1.789-4.695,2.697-8.273,2.697
						c-3.473,0-6.223-0.889-8.17-2.637c-1.998-1.795-3.012-4.387-3.012-7.707V44.003l3.576-3.576h5.291v15.145
						c0,1.551,0.318,2.289,0.588,2.637c0.105,0.143,0.439,0.574,1.727,0.574c1.275,0,1.631-0.43,1.75-0.57
						c0.215-0.266,0.582-0.955,0.582-2.641V40.427h5.287L168.227,44.003z"/>
					<polygon fill="#2F3845" points="131.783,47.72 131.783,51.408 139.633,51.408 139.633,59.109 131.783,59.109 131.783,66.939 
						126.367,66.939 122.68,63.248 122.68,43.705 126.367,40.021 138.066,40.021 141.754,43.705 141.754,47.72 					"/>
				</g>
			</g>
			<g>
				<polygon fill="#2F3845" points="63.67,61.029 67.371,64.728 67.371,68.748 57.381,68.748 57.381,72.449 65.24,72.449 
					65.24,80.158 57.381,80.158 57.381,88.009 51.951,88.009 48.25,84.308 48.25,64.728 51.951,61.029 				"/>
				<path fill="#2F3845" d="M90.25,22.558c-0.43-0.26-0.859-0.52-1.309-0.77c-2.18-1.26-4.48-2.43-6.82-3.51
					c-0.6-0.271-1.18-0.541-1.76-0.801c-0.611-0.26-1.201-0.51-1.791-0.76c-0.139-0.07-0.289-0.131-0.43-0.189l-0.459-0.18
					c-0.301-0.121-0.592-0.24-0.891-0.361c-0.291-0.119-0.59-0.24-0.871-0.35c-0.299-0.119-0.6-0.23-0.889-0.34
					c-1.16-0.449-2.35-0.881-3.471-1.279c-1.18-0.4-2.289-0.781-3.33-1.131c-0.49-0.18-1.061-0.34-1.57-0.51
					c-0.52-0.16-1.02-0.311-1.5-0.461c-0.24-0.068-0.469-0.148-0.699-0.219c-0.109-0.031-0.23-0.07-0.34-0.1
					c-0.121-0.031-0.24-0.07-0.35-0.102c-0.471-0.139-0.92-0.27-1.33-0.389c-0.42-0.121-0.82-0.23-1.191-0.34
					c-0.398-0.102-0.77-0.201-1.109-0.301c-0.34-0.09-0.66-0.17-0.949-0.25c-0.15-0.041-0.281-0.07-0.42-0.109
					c-0.141-0.031-0.271-0.07-0.4-0.102c-1.01-0.25-1.531-0.379-1.531-0.379h-0.148c0,0-0.531,0.129-1.541,0.379
					c-0.129,0.031-0.26,0.07-0.4,0.102c-0.129,0.039-0.27,0.068-0.42,0.109c-0.289,0.08-0.6,0.16-0.949,0.25
					c-0.34,0.1-0.711,0.199-1.1,0.301c-0.381,0.109-0.77,0.219-1.191,0.34c-0.42,0.119-0.859,0.25-1.328,0.389
					c-0.121,0.031-0.24,0.07-0.361,0.102c-0.109,0.029-0.219,0.068-0.34,0.1c-0.23,0.07-0.459,0.15-0.699,0.219
					c-0.471,0.15-0.971,0.301-1.49,0.461c-0.52,0.17-1.09,0.33-1.58,0.51c-1.029,0.35-2.141,0.73-3.33,1.131
					c-1.121,0.398-2.301,0.83-3.461,1.279c-0.299,0.109-0.59,0.221-0.898,0.34c-0.281,0.109-0.57,0.23-0.871,0.35
					c-0.289,0.121-0.59,0.24-0.891,0.361c-0.148,0.059-0.299,0.119-0.449,0.18c-0.15,0.059-0.289,0.119-0.439,0.189
					c-0.58,0.25-1.18,0.5-1.791,0.76c-0.57,0.26-1.16,0.529-1.76,0.801c-2.33,1.08-4.629,2.25-6.82,3.51
					c-0.568,0.33-1.119,0.66-1.67,1L10.191,51.417c0.32,3.82,0.809,7.781,1.51,11.791c0.709,4.049,1.629,8.17,2.779,12.279
					c1.141,4.121,2.5,8.24,4.07,12.291c0.199,0.51,0.4,1.01,0.6,1.51c0.211,0.51,0.41,1.01,0.621,1.51c0.43,1.01,0.84,2.01,1.299,3
					c0.871,1.99,1.82,3.939,2.791,5.881c1.949,3.85,4.07,7.58,6.299,11.119c0.371,0.6,0.75,1.189,1.141,1.781l25.439,14.318
					l25.51-14.369c0.381-0.57,0.75-1.15,1.121-1.73c2.219-3.539,4.35-7.27,6.299-11.119c0.971-1.941,1.91-3.891,2.791-5.881
					c0.449-0.99,0.869-1.99,1.289-3c0.221-0.5,0.41-1,0.621-1.51c0.199-0.5,0.41-1,0.6-1.51c1.58-4.051,2.939-8.17,4.08-12.291
					c1.141-4.109,2.061-8.23,2.77-12.279c0.67-3.84,1.16-7.621,1.471-11.291L90.25,22.558z M41.4,39.058
					c0-8.459,6.881-15.34,15.34-15.34c8.461,0,15.35,6.881,15.35,15.34v6.67l-6.639-1.391v-5.279c0-4.801-3.91-8.709-8.711-8.709
					c-4.799,0-8.709,3.908-8.709,8.709v5.279L41.4,45.728V39.058z M79.191,76.419c-0.4,1.91-0.891,3.818-1.461,5.699
					c-0.279,0.939-0.57,1.869-0.891,2.789c-0.299,0.932-0.6,1.842-0.93,2.73c-1.26,3.58-2.559,6.92-3.639,9.791
					c-0.281,0.719-0.541,1.4-0.791,2.059c-0.26,0.65-0.74,1.271-1.34,1.852c-0.619,0.58-1.34,1.129-2.221,1.629
					c-0.209,0.131-0.42,0.25-0.629,0.371c-0.23,0.119-0.471,0.24-0.689,0.35c-0.432,0.24-0.941,0.449-1.42,0.66
					c-0.441,0.209-0.99,0.41-1.451,0.6c-0.469,0.18-1.039,0.359-1.49,0.52c-0.49,0.16-0.9,0.311-1.35,0.451
					c-0.48,0.139-0.91,0.26-1.301,0.369c-0.719,0.23-1.52,0.4-1.969,0.52c-0.48,0.111-0.721,0.17-0.721,0.17h-0.32
					c0,0-0.24-0.059-0.719-0.17c-0.441-0.119-1.25-0.289-1.971-0.52c-0.391-0.109-0.82-0.23-1.301-0.369
					c-0.449-0.141-0.859-0.291-1.34-0.451c-0.459-0.16-1.02-0.34-1.5-0.52c-0.459-0.189-1.01-0.391-1.449-0.6
					c-0.471-0.211-0.98-0.42-1.41-0.66c-0.23-0.109-0.459-0.23-0.699-0.35c-0.211-0.121-0.41-0.24-0.631-0.371
					c-0.879-0.5-1.6-1.049-2.221-1.629c-0.6-0.58-1.068-1.201-1.34-1.852c-0.25-0.658-0.51-1.34-0.779-2.059
					c-1.08-2.871-2.381-6.211-3.65-9.791c-0.32-0.889-0.629-1.799-0.93-2.73c-0.311-0.92-0.609-1.85-0.891-2.789
					c-0.559-1.881-1.059-3.789-1.449-5.699c-0.789-3.82-1.1-7.641-0.961-11.221c0.131-3.59,0.691-6.93,1.311-9.791
					c0.311-1.439,0.65-2.75,0.971-3.91c0.34-1.17,2.629-2.18,5.67-3.02c0.391-0.1,0.779-0.199,1.15-0.301
					c0.18-0.049,0.398-0.1,0.629-0.148c0.23-0.051,0.451-0.09,0.67-0.141c0.881-0.189,1.701-0.359,2.461-0.52l0.289-0.061
					l0.35-0.061c0.23-0.039,0.461-0.08,0.682-0.119c0.449-0.07,0.869-0.141,1.279-0.211c0.41-0.068,0.801-0.139,1.17-0.199
					c0.17-0.029,0.381-0.061,0.6-0.09c0.211-0.029,0.41-0.061,0.611-0.09c0.799-0.111,1.5-0.211,2.109-0.291
					c0.709-0.09,1.32-0.16,1.799-0.219c0.99-0.111,1.49-0.17,1.49-0.17h0.32c0,0,0.51,0.059,1.49,0.17
					c0.49,0.059,1.09,0.129,1.801,0.219c0.609,0.08,1.309,0.18,2.109,0.291c0.199,0.029,0.4,0.061,0.619,0.09
					c0.211,0.029,0.42,0.061,0.602,0.09c0.359,0.061,0.75,0.131,1.16,0.199c0.408,0.07,0.84,0.141,1.279,0.211
					c0.221,0.039,0.449,0.08,0.68,0.119l0.35,0.061l0.291,0.061c0.76,0.16,1.58,0.33,2.459,0.52c0.221,0.051,0.441,0.09,0.67,0.141
					c0.23,0.049,0.461,0.1,0.631,0.148c0.369,0.102,0.76,0.201,1.16,0.301c3.029,0.84,5.32,1.85,5.66,3.02
					c0.32,1.16,0.66,2.471,0.969,3.91c0.621,2.861,1.182,6.201,1.311,9.791C80.291,68.779,79.98,72.599,79.191,76.419z"/>
				<g>
					<g>
						<polygon fill="#2F3845" points="57.381,68.748 57.381,72.449 65.24,72.449 65.24,80.158 57.381,80.158 57.381,88.009 
							51.951,88.009 48.25,84.308 48.25,64.728 51.951,61.029 63.67,61.029 67.371,64.728 67.371,68.748 						"/>
						<polygon fill="#2F3845" points="57.381,68.748 57.381,72.449 65.24,72.449 65.24,80.158 57.381,80.158 57.381,88.009 
							51.951,88.009 48.25,84.308 48.25,64.728 51.951,61.029 63.67,61.029 67.371,64.728 67.371,68.748 						"/>
					</g>
				</g>
			</g>
		</g>
	</g>
</g>
</svg>
